<svg id="Layer_1" data-name="Layer 1" xmlns="http://www.w3.org/2000/svg" viewBox="0 0 99.79 65.29"><defs><style>.cls-1,.cls-2{fill:#fff;}.cls-1{stroke:#000;stroke-miterlimit:10;stroke-width:3px;}</style></defs><title>arrow</title><polygon class="cls-1" points="41.86 25.53 45.49 23.99 40.1 11.28 43.74 9.74 45.27 13.37 48.91 11.84 50.45 15.46 54.08 13.93 55.62 17.56 59.25 16.02 60.79 19.65 64.42 18.11 65.96 21.74 69.59 20.2 71.13 23.83 74.76 22.29 76.3 25.92 79.93 24.38 81.47 28.01 85.1 26.48 86.64 30.11 39.06 50.28 37.99 47.74 41.62 46.2 40.08 42.57 43.71 41.03 42.17 37.4 45.1 36.16 43.65 32.73 37.09 35.51 35.63 32.09 29.07 34.87 27.62 31.44 21.05 34.22 19.6 30.8 13.04 33.58 10.26 27.02 16.82 24.24 18.27 27.66 24.84 24.88 26.29 28.3 32.85 25.52 34.23 28.77 41.86 25.53"/><polygon class="cls-2" points="86.64 30.11 85.1 26.48 88.73 24.93 90.27 28.57 93.11 27.36 94.52 30.68 33.9 56.38 32.49 53.06 35.43 51.82 34.35 49.28 37.99 47.74 39.06 50.28 86.64 30.11"/><rect class="cls-2" x="80.54" y="23.46" width="3.94" height="3.94" transform="translate(-3.38 34.23) rotate(-22.98)"/><rect class="cls-2" x="75.37" y="21.37" width="3.94" height="3.94" transform="translate(-2.97 32.04) rotate(-22.98)"/><rect class="cls-2" x="70.2" y="19.27" width="3.94" height="3.94" transform="translate(-2.57 29.86) rotate(-22.98)"/><rect class="cls-2" x="65.03" y="17.18" width="3.94" height="3.94" transform="translate(-2.16 27.67) rotate(-22.98)"/><rect class="cls-2" x="59.86" y="15.09" width="3.94" height="3.94" transform="translate(-1.76 25.49) rotate(-22.98)"/><rect class="cls-2" x="54.69" y="13" width="3.94" height="3.94" transform="translate(-1.35 23.31) rotate(-22.98)"/><rect class="cls-2" x="49.52" y="10.91" width="3.94" height="3.94" transform="translate(-0.94 21.12) rotate(-22.98)"/><rect class="cls-2" x="37.06" y="43.18" width="3.94" height="3.94" transform="translate(-14.53 18.82) rotate(-22.98)"/><rect class="cls-2" x="44.35" y="8.82" width="3.94" height="3.94" transform="translate(-0.54 18.94) rotate(-22.98)"/><polygon class="cls-2" points="42.2 6.11 43.74 9.74 40.1 11.28 45.49 23.99 41.86 25.53 34.23 28.77 32.85 25.52 40.49 22.29 34.93 9.19 33.4 5.56 37.03 4.02 38.56 7.65 42.2 6.11"/><rect class="cls-2" x="25.28" y="23.34" width="7.13" height="3.72" transform="translate(-7.55 13.26) rotate(-22.98)"/><rect class="cls-2" x="17.26" y="22.7" width="7.13" height="3.72" transform="translate(-7.93 10.08) rotate(-22.98)"/><rect class="cls-2" x="9.25" y="22.05" width="7.13" height="3.72" transform="translate(-8.32 6.9) rotate(-22.98)"/><rect class="cls-2" x="13.48" y="32.04" width="7.13" height="3.72" transform="translate(-11.88 9.34) rotate(-22.98)"/><rect class="cls-2" x="21.5" y="32.69" width="7.13" height="3.72" transform="translate(-11.5 12.52) rotate(-22.98)"/><rect class="cls-2" x="29.51" y="33.33" width="7.13" height="3.72" transform="translate(-11.11 15.7) rotate(-22.98)"/><polygon class="cls-2" points="45.1 36.16 42.17 37.4 43.71 41.03 40.08 42.57 38.54 38.94 37.09 35.51 43.65 32.73 45.1 36.16"/><rect class="cls-2" x="8.07" y="27.46" width="3.72" height="7.13" transform="translate(-11.32 6.34) rotate(-22.98)"/><polygon points="94.52 30.68 92.67 35.76 32.52 61.27 30.27 55.96 32.49 53.06 33.9 56.38 94.52 30.68"/><polygon points="37.13 23.71 31.58 10.61 33.4 5.56 40.49 22.29 37.13 23.71"/><polygon points="36.45 44.11 35.06 40.83 28.84 43.46 27.24 39.69 21.11 42.28 19.82 39.25 13.15 42.07 11.77 38.8 8.35 40.25 5.27 33 7.07 28.57 9.78 34.96 13.04 33.58 14.49 37.01 21.05 34.22 22.51 37.65 29.07 34.87 30.52 38.29 37.09 35.51 40.08 42.57 36.45 44.11"/></svg>