<svg id="Layer_1" data-name="Layer 1" xmlns="http://www.w3.org/2000/svg" viewBox="0 0 143.03 153"><defs><style>.cls-1{fill:#fff;}.cls-2{fill:none;}</style></defs><title>bulb</title><rect class="cls-1" width="143.03" height="153"/><path class="cls-2" d="M59.52,75.23A8.61,8.61,0,0,0,59,74.4l-.26-.27c-.25.27-.5.55-.73.85a13.3,13.3,0,0,0-1.48,2.49,10.26,10.26,0,0,0-.63,2.31,6.72,6.72,0,0,0,0,1,4,4,0,0,0,.16.57c0,.09.1.18.16.27a3.78,3.78,0,0,0,.41.39,4.37,4.37,0,0,0,.55.32l.39.11h0l.28-.08,0,0a4.12,4.12,0,0,0,.35-.37,8.07,8.07,0,0,0,.78-1.37A13.19,13.19,0,0,0,59.74,78a10.36,10.36,0,0,0,.06-1.76A8.73,8.73,0,0,0,59.52,75.23Z"/><path class="cls-2" d="M63.59,142.15a12.49,12.49,0,0,1-.93-.85A9.5,9.5,0,0,1,61,139a14,14,0,0,1-1.2-3.38,28.76,28.76,0,0,1-.42-3.21c-.14-1.7-.2-3.42-.33-5.13s-.33-3.55-.51-5.32a32.16,32.16,0,0,0-1.22-5.06c-.54-1.67-1.1-3.33-1.74-5-.44-1-.87-2-1.4-3A30.51,30.51,0,0,0,52.3,106c-1.36-1.87-2.77-3.71-4-5.67-.48-.74-.91-1.51-1.4-2.24s-1-1.5-1.54-2.24a36.09,36.09,0,0,1-3.75-6.37A15.83,15.83,0,0,1,40,82.22a15,15,0,0,1,.83-4.2,14.73,14.73,0,0,1,1.58-3.24A13.12,13.12,0,0,1,47.94,70a13.62,13.62,0,0,1,7.94-.72,13.4,13.4,0,0,1,2.54.67,8.56,8.56,0,0,1,2.7-1.31,10.68,10.68,0,0,1,3.94-.26,14.9,14.9,0,0,1,3.63.73l.71.3a5.6,5.6,0,0,1,.49-.36,9.26,9.26,0,0,1,3.76-1.54,11.85,11.85,0,0,1,3.76.11A8.52,8.52,0,0,1,81,69a9.83,9.83,0,0,1,2.48,2.74,10.35,10.35,0,0,1,1.44,3.7,19.18,19.18,0,0,1,.25,3.71c0,.92,0,1.83-.09,2.75,0,.5,0,1-.1,1.5L84.78,85c-.12,1-.31,2-.5,3a24.78,24.78,0,0,1-1.82,5.3c-.36.83-.72,1.68-1.15,2.48-.83,1.56-1.71,3.1-2.57,4.66s-1.66,3.1-2.38,4.71c-.53,1.29-1,2.58-1.42,3.9s-.8,2.64-1.14,4-.75,2.61-1.17,3.9a29.58,29.58,0,0,0-1.21,4.23,20.52,20.52,0,0,0,0,4.22,12.43,12.43,0,0,0,.73,2.67,10.8,10.8,0,0,0,.93,1.62,7.4,7.4,0,0,0,.73.75,2.68,2.68,0,0,0,1.31.55,7.84,7.84,0,0,0,1.28-.06q.28-.06.57-.15a9.75,9.75,0,0,0,1.44-1A20.58,20.58,0,0,0,80,128.39c.52-.55,1-1.11,1.51-1.67s.75-1,1.09-1.51.87-1.35,1.28-2c.78-1.35,1.51-2.72,2.21-4.11s1.22-2.52,1.86-3.76,1.17-2.19,1.66-3.34c.28-.68.57-1.36.86-2a34.08,34.08,0,0,0,1.39-3.77c.42-1.45.81-2.91,1.23-4.36.85-2.89,2-5.69,3.11-8.5.64-1.68,1.29-3.36,1.83-5.07s1.06-3.42,1.48-5.16.87-3.77,1.28-5.66c.19-.82.37-1.64.53-2.46s.31-1.72.44-2.59l.18-1.51c.06-.56,0-1.13.08-1.7,0-1.08,0-2.17,0-3.25s0-2-.09-3c0-.54-.06-1.1-.12-1.64l-.18-1.52c-.08-.54-.16-1.1-.27-1.64s-.22-1.2-.39-1.79c-.4-1.35-.79-2.7-1.31-4a18.68,18.68,0,0,0-2.1-3.66,26.56,26.56,0,0,0-4.12-4.09,24.17,24.17,0,0,0-2.48-1.64c-.76-.45-1.54-.83-2.33-1.21-1.3-.54-2.6-1.06-3.94-1.51-.67-.22-1.33-.41-2-.57-1.14-.27-2.26-.53-3.41-.7a52.48,52.48,0,0,0-6.14-.29c-1.43,0-2.87,0-4.3,0s-3,0-4.52.17c-.78.06-1.57.1-2.35.2l-2,.25c-1.23.2-2.47.39-3.69.65-.74.15-1.49.29-2.21.48A39.53,39.53,0,0,0,49.15,42l-1.39.65c-.38.17-.78.34-1.16.54L45.06,44c-.34.18-.69.34-1,.54l-1.58,1c-.33.2-.66.38-1,.6L39.18,47.8,37,49.65A33.23,33.23,0,0,0,32,54.73a39.07,39.07,0,0,0-4.54,7.78,22.71,22.71,0,0,0-1.41,4.7,43.1,43.1,0,0,0,.09,7.87c.08,1.17.24,2.33.38,3.5.1.57.2,1.15.31,1.72s.14.94.25,1.39c.16.62.31,1.24.47,1.86s.22,1,.36,1.42c.2.63.4,1.26.61,1.89s.27,1,.45,1.44c.38,1,.76,1.94,1.13,2.92l1.08,2.33c.29.63.63,1.22,1,1.82.74,1.39,1.53,2.75,2.39,4.08s1.77,2.72,2.69,4.06,1.75,2.42,2.64,3.62c1.48,1.8,3,3.58,4.39,5.45.55.74,1.14,1.46,1.63,2.23s1.05,1.59,1.53,2.41c.71,1.2,1.44,2.4,2.05,3.67a23.25,23.25,0,0,1,2.32,7.78,41,41,0,0,1,.09,5.2c0,.74,0,1.48-.09,2.23a21.81,21.81,0,0,1-.52,3.94,14.68,14.68,0,0,1-.64,1.94,11.6,11.6,0,0,1-.88,1.85,16.69,16.69,0,0,1-2.4,3A25.17,25.17,0,0,1,43.54,150H76.72C71.71,148.31,67,145.82,63.59,142.15Z"/><path class="cls-2" d="M70.77,75a7.59,7.59,0,0,0-.49-.81l-.4-.42A10.37,10.37,0,0,0,69,75.23a15.51,15.51,0,0,0-.81,3.15,7.41,7.41,0,0,0-.07.93l.09.34.07.12a4,4,0,0,0,.29.29,2.87,2.87,0,0,0,.48.28l.27.08h.11l.29-.08.06,0,.36-.37c.13-.2.24-.4.35-.61A9.65,9.65,0,0,0,71,77.58a8.7,8.7,0,0,0,0-1.53A5.92,5.92,0,0,0,70.77,75Z"/><path d="M57.83,82.4l-.07,0h0Z"/><path d="M57.68,82.46h0l.08,0h0Z"/><polygon points="57.75 82.43 57.76 82.43 57.76 82.43 57.75 82.43"/><path d="M57.77,82.43h0Z"/><path d="M57.59,82.5l.08,0h0Z"/><path d="M57.86,82.42l.09,0h-.09Z"/><path d="M97.52,48.63h0l0,0Z"/><polygon points="57.76 82.43 57.76 82.43 57.77 82.43 57.77 82.43 57.76 82.43"/><path d="M1.25,54.18c1.47.3,2.92.66,4.38,1,.44.1.88.25,1.31.37l2.14.63A42.14,42.14,0,0,0,17,57.73c1.27.11,2.54.24,3.81.27a1.71,1.71,0,1,0,0-3.41c-1.7,0-3.42-.2-5.11-.41a65.44,65.44,0,0,1-8.39-2.07c-1.68-.49-3.4-.87-5.11-1.22a1.84,1.84,0,0,0-.41,0A1.68,1.68,0,0,0,.06,52.08,1.71,1.71,0,0,0,1.25,54.18Z"/><path d="M27.1,24c1,1.26,2.06,2.56,3.08,3.84,1.31,1.72,2.63,3.45,3.93,5.2a1.83,1.83,0,0,0,1,.78,1.71,1.71,0,0,0,1.31-.17,1.74,1.74,0,0,0,.79-1,1.69,1.69,0,0,0-.17-1.32q-2.82-3.81-5.79-7.54c-2.14-2.68-4.35-5.3-6.58-7.91a1.5,1.5,0,0,0-1.16-.5,1.8,1.8,0,0,0-1.25.5,1.68,1.68,0,0,0-.5,1.2,1.83,1.83,0,0,0,.5,1.21C23.89,20.19,25.5,22.11,27.1,24Z"/><path d="M66.32,25.12A1.72,1.72,0,0,0,68,23.42V2.7a1.71,1.71,0,0,0-3.41,0V23.42A1.72,1.72,0,0,0,66.32,25.12Z"/><path d="M121.09,16.19l.3-.23,0,0Z"/><path d="M102.31,34.46a1.72,1.72,0,0,0,2.33-.61c1.11-1.79,2.25-3.55,3.52-5.23a54.33,54.33,0,0,1,5.46-6c1-1,2.15-2,3.25-2.94,1.47-1.28,3-2.53,4.52-3.73l-.3.23.34-.26,0,0,1.13-.86a1.92,1.92,0,0,0,.78-1,1.74,1.74,0,0,0-.17-1.32,1.71,1.71,0,0,0-1-.78,1.8,1.8,0,0,0-.48-.06,1.44,1.44,0,0,0-.83.23c-1.16.88-2.32,1.76-3.44,2.68s-2.19,1.84-3.27,2.78A71.28,71.28,0,0,0,108.47,23c-1.29,1.4-2.48,2.89-3.63,4.42s-2.15,3.12-3.14,4.73A1.71,1.71,0,0,0,102.31,34.46Z"/><path d="M115.23,59.84a1.68,1.68,0,0,0,0,2.41,1.59,1.59,0,0,0,1.2.5l7-.74c1.85-.2,3.68-.45,5.52-.68.88-.11,1.74-.27,2.61-.42s1.66-.26,2.48-.44c2-.43,4-.85,6-1.34a1.7,1.7,0,0,0-.48-3.34,2.1,2.1,0,0,0-.43.05c-1.87.47-3.75.86-5.64,1.26-1.57.34-3.17.58-4.76.85-1.75.22-3.5.46-5.25.64l-7.08.75A1.78,1.78,0,0,0,115.23,59.84Z"/><path d="M64.12,137.57a8.38,8.38,0,0,0,.57.89A11.34,11.34,0,0,0,66,139.69a15,15,0,0,1-2.56-3.9c.07.26.14.52.23.78S63.94,137.25,64.12,137.57Z"/><path d="M15.64,150c-.57,0-1.13,0-1.69,0h-.8c-.42,0-.85,0-1.27.05l-.39,0H16.4Z"/><path d="M47.37,146.85a16.69,16.69,0,0,0,2.4-3,11.6,11.6,0,0,0,.88-1.85,14.68,14.68,0,0,0,.64-1.94,21.81,21.81,0,0,0,.52-3.94c.06-.75.07-1.49.09-2.23a41,41,0,0,0-.09-5.2,23.25,23.25,0,0,0-2.32-7.78c-.61-1.27-1.34-2.47-2.05-3.67-.48-.82-1-1.61-1.53-2.41s-1.08-1.49-1.63-2.23c-1.4-1.87-2.91-3.65-4.39-5.45-.89-1.2-1.79-2.39-2.64-3.62s-1.81-2.7-2.69-4.06-1.65-2.69-2.39-4.08c-.32-.6-.66-1.19-1-1.82l-1.08-2.33c-.37-1-.75-2-1.13-2.92-.18-.47-.3-1-.45-1.44S28.15,85.6,28,85c-.14-.47-.24-1-.36-1.42s-.31-1.24-.47-1.86c-.11-.45-.17-.93-.25-1.39s-.21-1.15-.31-1.72c-.14-1.17-.3-2.33-.38-3.5a43.1,43.1,0,0,1-.09-7.87,22.71,22.71,0,0,1,1.41-4.7A39.07,39.07,0,0,1,32,54.73,33.23,33.23,0,0,1,37,49.65l2.23-1.85,2.31-1.64c.31-.22.64-.4,1-.6l1.58-1c.33-.2.68-.36,1-.54l1.54-.82c.38-.2.78-.37,1.16-.54L49.15,42A39.53,39.53,0,0,1,54,40.39c.72-.19,1.47-.33,2.21-.48,1.22-.26,2.46-.45,3.69-.65l2-.25c.78-.1,1.57-.14,2.35-.2,1.5-.13,3-.14,4.52-.17s2.87,0,4.3,0a52.48,52.48,0,0,1,6.14.29c1.15.17,2.27.43,3.41.7.69.16,1.35.35,2,.57,1.34.45,2.64,1,3.94,1.51.79.38,1.57.76,2.33,1.21a24.17,24.17,0,0,1,2.48,1.64,26.56,26.56,0,0,1,4.12,4.09h0l0,0,0,0a18.68,18.68,0,0,1,2.1,3.66c.52,1.3.91,2.65,1.31,4,.17.59.26,1.2.39,1.79s.19,1.1.27,1.64l.18,1.52c.06.54.08,1.1.12,1.64.06,1,.08,2,.09,3s.06,2.17,0,3.25c0,.57,0,1.14-.08,1.7l-.18,1.51c-.13.87-.28,1.73-.44,2.59s-.34,1.64-.53,2.46c-.41,1.89-.83,3.78-1.28,5.66s-.94,3.45-1.48,5.16-1.19,3.39-1.83,5.07c-1.08,2.81-2.26,5.61-3.11,8.5-.42,1.45-.81,2.91-1.23,4.36a34.08,34.08,0,0,1-1.39,3.77c-.29.68-.58,1.36-.86,2-.49,1.15-1.08,2.24-1.66,3.34s-1.23,2.51-1.86,3.76-1.43,2.76-2.21,4.11c-.41.69-.83,1.37-1.28,2s-.71,1-1.09,1.51-1,1.12-1.51,1.67a20.58,20.58,0,0,1-1.54,1.41,9.75,9.75,0,0,1-1.44,1q-.28.09-.57.15a7.84,7.84,0,0,1-1.28.06,2.68,2.68,0,0,1-1.31-.55,7.4,7.4,0,0,1-.73-.75,10.8,10.8,0,0,1-.93-1.62,12.43,12.43,0,0,1-.73-2.67,20.52,20.52,0,0,1,0-4.22,29.58,29.58,0,0,1,1.21-4.23c.42-1.29.83-2.58,1.17-3.9s.72-2.66,1.14-4,.89-2.61,1.42-3.9c.72-1.61,1.53-3.16,2.38-4.71s1.74-3.1,2.57-4.66c.43-.8.79-1.65,1.15-2.48A24.78,24.78,0,0,0,84.28,88c.19-1,.38-2,.5-3L85,83.4c.06-.5.07-1,.1-1.5,0-.92.07-1.83.09-2.75a19.18,19.18,0,0,0-.25-3.71,10.35,10.35,0,0,0-1.44-3.7A9.83,9.83,0,0,0,81,69a8.52,8.52,0,0,0-3.57-1.4,11.85,11.85,0,0,0-3.76-.11A9.26,9.26,0,0,0,69.89,69a5.6,5.6,0,0,0-.49.36l-.71-.3a14.9,14.9,0,0,0-3.63-.73,10.68,10.68,0,0,0-3.94.26,8.56,8.56,0,0,0-2.7,1.31,13.4,13.4,0,0,0-2.54-.67,13.62,13.62,0,0,0-7.94.72,13.12,13.12,0,0,0-5.55,4.8A14.73,14.73,0,0,0,40.81,78a15,15,0,0,0-.83,4.2,15.83,15.83,0,0,0,1.63,7.29,36.09,36.09,0,0,0,3.75,6.37c.52.74,1,1.49,1.54,2.24s.92,1.5,1.4,2.24c1.23,2,2.64,3.8,4,5.67a30.51,30.51,0,0,1,1.89,2.89c.53,1,1,2,1.4,3,.64,1.63,1.2,3.29,1.74,5a32.16,32.16,0,0,1,1.22,5.06c.18,1.77.36,3.55.51,5.32s.19,3.43.33,5.13a28.76,28.76,0,0,0,.42,3.21A14,14,0,0,0,61,139a9.5,9.5,0,0,0,1.65,2.32,12.49,12.49,0,0,0,.93.85c3.38,3.67,8.12,6.16,13.13,7.85H97.21a78.16,78.16,0,0,1-17.58-2.68c-5.29-1.54-10.35-3.92-13.67-7.63a11.34,11.34,0,0,1-1.27-1.23,8.38,8.38,0,0,1-.57-.89c-.18-.32-.33-.66-.49-1s-.16-.52-.23-.78c-.18-.61-.33-1.22-.45-1.84-.19-1.66-.26-3.34-.37-5s-.28-3.47-.44-5.2c-.11-1.07-.22-2.12-.37-3.18a22.77,22.77,0,0,0-.54-2.45c-.44-1.69-1-3.35-1.57-5a49.85,49.85,0,0,0-2.08-5,22.3,22.3,0,0,0-1.28-2.29c-.47-.72-1-1.41-1.5-2.11-1-1.39-2.07-2.76-3-4.21-.51-.76-1-1.54-1.45-2.32s-1-1.58-1.58-2.36A41.46,41.46,0,0,1,44.62,88a19.53,19.53,0,0,1-1.19-4,12.49,12.49,0,0,1,0-2.52,15.24,15.24,0,0,1,.85-3.11A14.19,14.19,0,0,1,45.72,76a13.38,13.38,0,0,1,1.76-1.77,12.87,12.87,0,0,1,2-1.18,10.12,10.12,0,0,1,2-.54,15.28,15.28,0,0,1,3.38.07l.7.13-.53.67a14.72,14.72,0,0,0-1.81,3.36,10.63,10.63,0,0,0-.53,1.83,10.44,10.44,0,0,0-.21,2.22,5.41,5.41,0,0,0,.37,1.72,5.15,5.15,0,0,0,1,1.61,5.59,5.59,0,0,0,1.41,1.1,5.15,5.15,0,0,0,.9.4,3.75,3.75,0,0,0,1.27.27,4.71,4.71,0,0,0,1.89-.4,3.84,3.84,0,0,0,1.35-1,9.75,9.75,0,0,0,1.92-3.59,15.18,15.18,0,0,0,.64-3.73,7.41,7.41,0,0,0-1-4,6,6,0,0,0-.74-1,8.06,8.06,0,0,1,1.19-.33,11.81,11.81,0,0,1,2.59,0,14.22,14.22,0,0,1,1.58.31,13.28,13.28,0,0,0-1.43,3.08,16.88,16.88,0,0,0-.7,3.93,5.45,5.45,0,0,0,.11,1.06,3.11,3.11,0,0,0,.35,1,5,5,0,0,0,1.42,1.66,5.73,5.73,0,0,0,1.71.86,4.27,4.27,0,0,0,2,0A3.71,3.71,0,0,0,72,82.89a5.84,5.84,0,0,0,1.27-1.49A7.56,7.56,0,0,0,74,79.69a9.58,9.58,0,0,0,.37-1.83,8.35,8.35,0,0,0-.31-3.78,7.21,7.21,0,0,0-1.64-2.61A5.28,5.28,0,0,1,73,71.2a7.87,7.87,0,0,1,1.32-.37,10.48,10.48,0,0,1,2,0,10.36,10.36,0,0,1,2,.5,6.93,6.93,0,0,1,.75.43,7.16,7.16,0,0,1,2.07,2.76,10.7,10.7,0,0,1,.53,1.94,24.11,24.11,0,0,1,.09,3.29c0,.61,0,1.22-.06,1.83s0,1.23-.12,1.84-.13,1.12-.19,1.69S81.13,86.36,81,87a21.94,21.94,0,0,1-1.23,4c-.32.73-.64,1.47-1,2.19s-.84,1.67-1.28,2.5c-.83,1.56-1.75,3.08-2.57,4.64a41.74,41.74,0,0,0-2.38,5.18c-.65,1.79-1.22,3.61-1.74,5.44-.25.86-.46,1.74-.7,2.61s-.54,1.73-.82,2.6-.55,1.57-.76,2.38c-.17.63-.33,1.25-.44,1.89a21.94,21.94,0,0,0-.19,2.27c0,.43,0,.86,0,1.28a16.21,16.21,0,0,0,.15,1.71,11.91,11.91,0,0,0,3.07,6.93A6.26,6.26,0,0,0,74,134.22a6.85,6.85,0,0,0,2.78,0,5.43,5.43,0,0,0,1.67-.44,6.42,6.42,0,0,0,.85-.48c.4-.27.78-.56,1.16-.85a27.79,27.79,0,0,0,7-8.84c.91-1.65,1.74-3.32,2.56-5,.72-1.49,1.57-2.93,2.25-4.44.28-.61.53-1.24.78-1.86A48.42,48.42,0,0,0,95,107.46c.52-1.67.91-3.37,1.43-5s1.15-3.37,1.8-5l1.92-5a77.6,77.6,0,0,0,3.17-10.79c.37-1.73.81-3.45,1.14-5.19.2-1,.37-2,.53-3s.29-1.85.34-2.77c.08-1.84.1-3.67,0-5.51,0-1-.06-1.93-.12-2.9s-.17-1.84-.28-2.77a30.1,30.1,0,0,0-.51-3c-.09-.39-.16-.79-.27-1.18s-.31-1.06-.46-1.6-.29-.85-.44-1.27a21.78,21.78,0,0,0-1-2.56,19.32,19.32,0,0,0-3.54-5,23.84,23.84,0,0,0-3.93-3.51l-1.31-.9c-.4-.27-.83-.48-1.24-.72a33.6,33.6,0,0,0-5.17-2.29c-.79-.29-1.59-.61-2.4-.82S82.87,36.16,82,36a30.67,30.67,0,0,0-6-.68q-1.45-.06-2.91-.06h-.75c-1.64,0-3.27,0-4.9,0-1.78,0-3.55.17-5.33.32-.43,0-.87.11-1.3.16-.59.08-1.18.13-1.76.23l-2.77.46c-1,.15-1.89.4-2.83.59a27.29,27.29,0,0,0-3.41,1,28.24,28.24,0,0,0-2.8,1.13c-.84.39-1.7.74-2.51,1.18s-1.67.83-2.45,1.31l-1.41.86c-.35.23-.73.43-1.07.67L37.32,45c-.34.24-.66.52-1,.79L34.79,47a36.34,36.34,0,0,0-4.53,4.5,39.65,39.65,0,0,0-4.4,6.57,36.76,36.76,0,0,0-1.71,3.65,23.1,23.1,0,0,0-1.26,4.07,21.73,21.73,0,0,0-.35,3.86c0,1,0,2.11.08,3.17s.14,2,.21,3c0,.4.09.81.14,1.21l.21,1.77c.13,1.06.35,2.11.54,3.15.15.84.38,1.66.58,2.49s.42,1.59.67,2.38.51,1.74.84,2.59l1.14,3c.4,1,.92,2,1.38,3,.38.83.84,1.62,1.28,2.42.83,1.54,1.78,3,2.73,4.49s1.93,3,3,4.4c.68.9,1.32,1.83,2,2.7s1.29,1.59,1.94,2.37l1.9,2.36L42.59,116c.47.64.87,1.32,1.3,2A41.76,41.76,0,0,1,47,123.68a21.69,21.69,0,0,1,1.33,4.74,34.8,34.8,0,0,1,.14,4.79c0,1.56-.09,3.11-.27,4.66a14.8,14.8,0,0,1-.82,3.07A11.6,11.6,0,0,1,46.24,143a21.89,21.89,0,0,1-3.58,3.49A22.78,22.78,0,0,1,38.24,149a23.31,23.31,0,0,1-3,1h8.33A25.17,25.17,0,0,0,47.37,146.85ZM57.59,82.5l.08,0h0Zm.26-.08h-.08l-.08,0h0l.08,0h0l.07,0-.06,0Zm0,0H58ZM59.74,78a13.19,13.19,0,0,1-.68,2.61A8.07,8.07,0,0,1,58.28,82a4.12,4.12,0,0,1-.35.37l0,0-.28.08h0l-.39-.11a4.37,4.37,0,0,1-.55-.32,3.78,3.78,0,0,1-.41-.39c-.06-.09-.11-.18-.16-.27a4,4,0,0,1-.16-.57,6.72,6.72,0,0,1,0-1,10.26,10.26,0,0,1,.63-2.31A13.3,13.3,0,0,1,58,75c.23-.3.48-.58.73-.85l.26.27a8.61,8.61,0,0,1,.49.83,8.73,8.73,0,0,1,.28,1A10.36,10.36,0,0,1,59.74,78ZM71,77.58a9.65,9.65,0,0,1-.48,1.75c-.11.21-.22.41-.35.61l-.36.37-.06,0-.29.08h-.11l-.27-.08a2.87,2.87,0,0,1-.48-.28,4,4,0,0,1-.29-.29l-.07-.12-.09-.34a7.41,7.41,0,0,1,.07-.93A15.51,15.51,0,0,1,69,75.23a10.37,10.37,0,0,1,.84-1.49l.4.42a7.59,7.59,0,0,1,.49.81,5.92,5.92,0,0,1,.28,1.08A8.7,8.7,0,0,1,71,77.58Z"/><path d="M183.18,150h-86c2.83.12,4.66.07,4.74.07h37.36a1.7,1.7,0,0,1,1.18,2.93h42.69Z"/><path d="M25.15,150.51a57.68,57.68,0,0,0,8.21-.13c.62-.1,1.24-.23,1.85-.38H16.4l4.26.28C22.15,150.38,23.65,150.48,25.15,150.51Z"/><path d="M8.65,151.77a1.72,1.72,0,0,1,.5-1.21,1.79,1.79,0,0,1,1.2-.49l1.14-.07H0v3H9.18A1.77,1.77,0,0,1,8.65,151.77Z"/><path d="M141,151.77a1.7,1.7,0,0,0-1.7-1.7H102c-.08,0-1.91.05-4.74-.07H76.72a69.39,69.39,0,0,0,14.45,3h49.32A1.71,1.71,0,0,0,141,151.77Z"/><path d="M41.2,151.38A21.12,21.12,0,0,0,43.54,150H35.21c-.61.15-1.23.28-1.85.38a57.68,57.68,0,0,1-8.21.13c-1.5,0-3-.13-4.49-.23L16.4,150H11.49l-1.14.07a1.79,1.79,0,0,0-1.2.49,1.72,1.72,0,0,0-.5,1.21A1.77,1.77,0,0,0,9.18,153h28l.18-.05A27.27,27.27,0,0,0,41.2,151.38Z"/></svg>