<svg id="Layer_1" data-name="Layer 1" xmlns="http://www.w3.org/2000/svg" viewBox="0 0 641.96 254.53"><defs><style>.cls-1{fill:#4d4d4d;}.cls-2{fill:#ffe01b;}</style></defs><title>logo</title><path class="cls-1" d="M409.44,230V220.1l12.85-2.2V127.44l-12.85-2.21v-10h41.24v10l-12.85,2.21V217.9h39.9l1.18-13.17h13.25V230Z"/><path class="cls-1" d="M561.09,230q-.72-3.47-1.11-6.23c-.26-1.84-.45-3.68-.55-5.52a37.55,37.55,0,0,1-11.24,9.58,28.69,28.69,0,0,1-14.39,3.83q-13.34,0-20.27-6.51t-6.94-18.34q0-12.14,9.82-18.73t26.93-6.58h16V171.6q0-7.48-4.73-11.87c-3.15-2.91-7.55-4.37-13.17-4.37a32.23,32.23,0,0,0-10.29,1.5,19.29,19.29,0,0,0-7.22,4.1l-1.65,9h-12V153.39a46,46,0,0,1,14.12-7.46,56,56,0,0,1,18-2.8q14.51,0,23.5,7.42t9,21.21v41.09c0,1.1,0,2.18,0,3.23s.09,2.1.19,3.16l6.31.86V230Zm-25-11.36A27.61,27.61,0,0,0,550.2,215a23,23,0,0,0,9.15-8.91V192H542.79q-9.54,0-15.1,4.41t-5.56,10.73q0,5.6,3.47,8.56T536.09,218.68Z"/><path class="cls-1" d="M20.4,129.1V115.22H68V129.1l-12.3,2.36v82.41L68,216.24V230H20.4v-13.8l12.3-2.37V131.46Z"/><path class="cls-1" d="M132.78,219.63a28.34,28.34,0,0,1-9.51,9,25.1,25.1,0,0,1-12.5,3.08q-15.76,0-24.48-11.52t-8.72-30.44v-1.65q0-20.19,8.76-32.57t24.6-12.39a23.72,23.72,0,0,1,11.52,2.8,28.29,28.29,0,0,1,9,7.93v-30.6l-12.31-2.36V107h35.33V213.87l11,2.37V230h-31ZM100.6,189.74q0,11.2,3.75,17.63t12.26,6.42a17.77,17.77,0,0,0,8.75-2,16.3,16.3,0,0,0,6.08-5.91v-36.2a17.59,17.59,0,0,0-6-6.35,16.24,16.24,0,0,0-8.63-2.24,12.92,12.92,0,0,0-12.31,7.49q-3.85,7.49-3.86,19.56Z"/><path class="cls-1" d="M213.69,231.7q-18.45,0-29.5-11.83t-11-30.05v-3.15q0-19,10.45-31.31t28-12.23q17.27,0,26.81,10.41T248,181.7v12.54H197.05l-.16.47a22.26,22.26,0,0,0,5.64,13.88q5,5.44,13.6,5.44a44.17,44.17,0,0,0,12.7-1.54,58.15,58.15,0,0,0,11-4.85l6.23,14.2a45.36,45.36,0,0,1-13.68,7A58.36,58.36,0,0,1,213.69,231.7Zm-2.05-70.82a12,12,0,0,0-10.1,4.89q-3.71,4.89-4.57,12.85l.24.4h28.23V177q0-7.33-3.43-11.72T211.64,160.88Z"/><path class="cls-1" d="M313.21,230a41.07,41.07,0,0,1-1.65-4.38,33.23,33.23,0,0,1-1.11-4.53,31.82,31.82,0,0,1-10,7.65A29.93,29.93,0,0,1,287,231.7q-12.54,0-19.91-6.83t-7.38-18.57q0-12,9.62-18.53t28.24-6.55h11.75v-8.35q0-6.17-3.55-9.55t-10.49-3.39a24.64,24.64,0,0,0-7,.91,18.25,18.25,0,0,0-5,2.17l-1.5,9.15H264.47l.08-18.93A64.9,64.9,0,0,1,279,146.05a52.65,52.65,0,0,1,17.79-2.92q15.85,0,25.75,7.77T332.45,173v35.25c0,1.32,0,2.55,0,3.71a26.51,26.51,0,0,0,.28,3.31l7,1V230Zm-19.95-15.38a19.93,19.93,0,0,0,9.46-2.25,18.22,18.22,0,0,0,6.63-5.63v-13H297.6q-7.34,0-11.12,3.43a10.74,10.74,0,0,0-3.79,8.24,8.52,8.52,0,0,0,2.8,6.79Q288.3,214.67,293.26,214.66Z"/><path class="cls-2" d="M411.24,67.22c.59-1.2,1.24-2.38,1.93-3.53s1.41-2.3,2.16-3.42c1.5-2.25,3.12-4.42,4.83-6.53s3.53-4.14,5.43-6.1,3.93-3.82,6-5.61a81.25,81.25,0,0,1,13.73-9.43,73.66,73.66,0,0,1,15.71-6.32,71.81,71.81,0,0,1,8.39-1.76,74.3,74.3,0,0,1,8.57-.74,78,78,0,0,1,17.12,1.43c1.41.27,2.81.57,4.2.91s2.76.7,4.13,1.11c2.73.8,5.42,1.73,8.06,2.76l2,.79c.65.26,1.3.52,2,.8,1.31.55,2.63,1.15,4,1.81.66.31,1.33.67,2,1s1.32.73,2,1.13,1.31.8,2,1.21,1.29.86,1.9,1.32a50,50,0,0,1,6.92,6.12q.4.42.78.84l.76.85,1.45,1.74c.45.59.93,1.18,1.36,1.78s.89,1.19,1.3,1.8a81.44,81.44,0,0,1,4.56,7.43l1,1.9.95,1.9c.32.63.61,1.27.91,1.91l.45,1,.42,1c1.15,2.56,2.19,5.14,3.15,7.73l.72,1.94c.24.65.46,1.3.69,1.95.45,1.31.87,2.59,1.3,3.88q2.5,7.76,4.5,15.65c1.32,5.25,2.44,10.55,3.49,15.74l.8,3.85c.27,1.27.54,2.53.83,3.76s.6,2.44,1,3.61.73,2.31,1.17,3.4c.12.27.22.55.34.81l.36.8.4.78c.13.26.28.5.42.76s.3.5.45.75.32.5.48.74l.25.37.28.37.58.73a65.75,65.75,0,0,0,5.26,5.64c1,.92,1.93,1.83,2.89,2.79a37.54,37.54,0,0,1,2.85,3,13.47,13.47,0,0,1,1.23,1.79,6.09,6.09,0,0,1,.77,2.1,4.28,4.28,0,0,1-.23,2.2,5.66,5.66,0,0,1-1.1,1.74,8.8,8.8,0,0,0,.35-.93,5.47,5.47,0,0,0,.18-1,3.53,3.53,0,0,0-.3-1.75,7.44,7.44,0,0,0-2.43-2.64c-1-.75-2.11-1.44-3.24-2.13s-2.28-1.37-3.43-2.08a56.83,56.83,0,0,1-6.79-4.82l-.82-.7-.4-.36-.41-.38c-.28-.25-.56-.5-.82-.77s-.54-.54-.78-.82a28,28,0,0,1-2.79-3.56,39.91,39.91,0,0,1-2.24-3.81c-.66-1.29-1.26-2.58-1.82-3.88s-1.09-2.57-1.58-3.85-1-2.55-1.43-3.81c-1.85-5.06-3.58-10-5.4-14.93s-3.66-9.8-5.59-14.64c-.49-1.21-1-2.44-1.46-3.62L539,81l-.75-1.77c-1-2.35-2-4.68-3.14-6.94a95.14,95.14,0,0,0-7.22-12.81,44.62,44.62,0,0,0-9.17-10.07c-.43-.35-.89-.68-1.33-1s-.92-.65-1.4-1c-.94-.63-1.93-1.22-3-1.81s-2.1-1.15-3.21-1.7l-1.69-.83c-.56-.27-1.13-.53-1.7-.78a89.4,89.4,0,0,0-14-5A73,73,0,0,0,477.9,35a64.72,64.72,0,0,0-7.37,0,65.71,65.71,0,0,0-7.36.81,77.41,77.41,0,0,0-28.09,10.92q-3.3,2-6.44,4.37T422.5,56c-2,1.71-3.93,3.51-5.82,5.36S413,65.17,411.24,67.22Z"/><path class="cls-1" d="M411.24,67.22c.72-1.46,1.54-2.88,2.39-4.28s1.74-2.77,2.67-4.12,1.9-2.67,2.9-4,2-2.58,3.11-3.83,2.18-2.47,3.31-3.66,2.31-2.36,3.52-3.48a83.41,83.41,0,0,1,7.63-6.38,77.43,77.43,0,0,1,8.38-5.43c1.45-.82,2.94-1.58,4.45-2.31l2.29-1c.77-.31,1.54-.65,2.32-.95a71.68,71.68,0,0,1,9.63-3,73.07,73.07,0,0,1,10-1.62,76,76,0,0,1,10.12-.22c1.69.07,3.37.22,5.05.39l2.51.3,2.5.4a97.34,97.34,0,0,1,9.84,2.26l2.41.72c.8.25,1.6.52,2.39.79.4.14.8.26,1.19.41l1.18.44,1.18.44.59.22.08,0,.11,0,.17.07.32.14c1.63.72,3.15,1.5,4.65,2.33s2.94,1.73,4.37,2.66a74.8,74.8,0,0,1,8.12,6.17,75.69,75.69,0,0,1,7.25,7.19A74.52,74.52,0,0,1,549.08,65a78.34,78.34,0,0,1,3.72,9.53l.72,2.46.18.61.16.59.32,1.18,1.27,4.7,1.3,4.68c.43,1.57.88,3.12,1.32,4.68.9,3.11,1.82,6.2,2.79,9.27l.36,1.15.37,1.15.75,2.28c.25.77.53,1.52.79,2.27s.52,1.51.8,2.26c1.1,3,2.3,5.91,3.63,8.75a53.69,53.69,0,0,0,4.62,8,40.93,40.93,0,0,0,2.84,3.58c.24.29.51.59.78.88l.81.88,1.64,1.74,3.42,3.51c.58.61,1.16,1.23,1.75,1.91a18.28,18.28,0,0,1,1.71,2.26,9.69,9.69,0,0,1,1.31,3.11,7.71,7.71,0,0,1-.16,3.65,11.67,11.67,0,0,1-1.33,2.84l-.2.31-.09.15h0l0,0a.33.33,0,0,0,0-.17,1.26,1.26,0,0,0,0,.27,6.47,6.47,0,0,0,.61,1.63,18.38,18.38,0,0,0,1.09,1.87c.83,1.26,1.78,2.5,2.77,3.73,2,2.45,4.19,4.8,6.42,7.13s4.54,4.59,6.88,6.84,4.71,4.46,7.11,6.65,4.82,4.36,7.26,6.5l-.15-.1.35.23.31.22.58.48a13,13,0,0,1,1,1,11,11,0,0,1,1.63,2.47,10,10,0,0,1,.8,5.71,12.15,12.15,0,0,1-.72,2.74c-.15.44-.36.86-.54,1.29s-.42.82-.64,1.23-.47.8-.72,1.18-.51.77-.79,1.13-.55.73-.84,1.09l-.88,1,.76-1.13c.25-.38.48-.78.72-1.16s.44-.79.66-1.19.39-.81.59-1.21.35-.83.5-1.25.3-.84.4-1.27a12.26,12.26,0,0,0,.42-2.6,8.75,8.75,0,0,0-1.11-4.89,9.13,9.13,0,0,0-1.54-2,10.3,10.3,0,0,0-.94-.81l-.51-.35c-.09-.05-.17-.11-.26-.15l-.23-.13,0,0-.1-.08q-7.87-5.88-15.37-12.22-3.75-3.18-7.38-6.53c-2.42-2.23-4.78-4.55-7-7a47.37,47.37,0,0,1-3.26-4,23,23,0,0,1-1.48-2.28,11.3,11.3,0,0,1-1.17-2.9c0-.16-.06-.32-.08-.48l0-.24v-.28a5,5,0,0,1,0-.55c0-.21,0-.41.07-.62a4.37,4.37,0,0,1,.46-1.31l.09-.16.07-.13.06-.11.13-.22a6.26,6.26,0,0,0,.68-1.59,2.39,2.39,0,0,0,0-1.19,4.35,4.35,0,0,0-.67-1.33,24.23,24.23,0,0,0-2.91-3.22l-3.52-3.37-1.77-1.75-.88-.89c-.29-.3-.59-.59-.88-.92a50.6,50.6,0,0,1-3.34-4,59,59,0,0,1-5.4-8.76c-.75-1.52-1.49-3-2.14-4.59s-1.29-3.09-1.92-4.63c-2.41-6.21-4.41-12.48-6.3-18.76-.46-1.58-.94-3.15-1.4-4.72l-1.34-4.72-1.31-4.73L547.25,80l-.17-.59-.16-.56-.66-2.23a77.77,77.77,0,0,0-3.4-8.66,67.64,67.64,0,0,0-4.54-8.1,68.37,68.37,0,0,0-5.59-7.43,71.9,71.9,0,0,0-6.54-6.64l-.87-.77-.9-.75c-.59-.51-1.21-1-1.81-1.47-1.24-1-2.49-1.88-3.77-2.75s-2.6-1.72-3.93-2.5-2.71-1.51-4-2.13l-.24-.11-.12,0h0l-.06,0-.55-.22-1.11-.43-1.1-.44c-.36-.14-.74-.27-1.11-.4-.74-.26-1.48-.55-2.23-.8l-2.25-.74a93.62,93.62,0,0,0-9.14-2.37,75.64,75.64,0,0,0-18.74-1.46,69.39,69.39,0,0,0-18.5,3.5,76.39,76.39,0,0,0-17.1,8.32,89,89,0,0,0-7.77,5.66c-2.5,2-4.89,4.19-7.19,6.46s-4.48,4.66-6.56,7.16A82.53,82.53,0,0,0,411.24,67.22Z"/><path class="cls-2" d="M517.67,131.17c-1.56-1-3.07-2.16-4.56-3.29l-2.21-1.73-2.17-1.76q-4.31-3.58-8.38-7.42T492.43,109c-2.56-2.74-5-5.57-7.4-8.52a94.47,94.47,0,0,1-6.65-9.38,49.88,49.88,0,0,1-2.84-5.28,30.39,30.39,0,0,1-1.17-3,19,19,0,0,1-.83-3.4,11.17,11.17,0,0,1,.14-4.27,8.49,8.49,0,0,1,1-2.46c.12-.2.26-.39.4-.58l.1-.14.08-.09.15-.18c.21-.24.43-.48.68-.73a8.86,8.86,0,0,1,1.95-1.51,6.4,6.4,0,0,1,1.55-.64,6,6,0,0,1,2.06-.17,5.64,5.64,0,0,1,2,.58,6,6,0,0,1,1.39,1,8.32,8.32,0,0,1,1.52,1.93,11.83,11.83,0,0,1,.81,1.71c.21.55.39,1.08.54,1.6a28,28,0,0,1,.67,3c.17,1,.28,2,.37,3,0,.49.07,1,.1,1.47l0,.74,0,.76v.42c0,.19,0,.32-.06.47l-.06.44c0,.29-.09.58-.14.86-.1.57-.2,1.13-.32,1.69-.23,1.12-.51,2.22-.81,3.31a47.58,47.58,0,0,1-2.28,6.39,37.4,37.4,0,0,1-3.24,5.93,26,26,0,0,1-4.38,5c.55-1,1.06-1.92,1.51-2.89s.88-2,1.23-3,.7-2,1-3,.55-2,.76-3.08a59.58,59.58,0,0,0,1-6.22c.11-1,.17-2.08.24-3.12,0-.52.05-1,.06-1.55,0-.25,0-.51,0-.76V85c0-.11,0-.25,0-.33v.41l-.31-1.24L483,82.58c-.24-.83-.49-1.66-.76-2.46s-.56-1.57-.88-2.27a8.81,8.81,0,0,0-1-1.71c-.14-.18-.28-.27-.24-.2a.58.58,0,0,0,.24.2,2,2,0,0,0,.67.21,2.15,2.15,0,0,0,.69,0l.29-.08c.06,0,0,.07-.19.25s-.14.18-.23.3l-.06.09,0,.05h0s0,0,0,.11a4.2,4.2,0,0,0,.08,1.23,12.74,12.74,0,0,0,.56,2,22.75,22.75,0,0,0,.91,2.16,50.2,50.2,0,0,0,2.41,4.47c1.79,3,3.81,5.94,5.89,8.88,4.18,5.88,8.64,11.67,13.08,17.54S513.4,125,517.67,131.17Z"/><path class="cls-1" d="M517.67,131.17c-.86-.81-1.7-1.65-2.55-2.48s-1.67-1.68-2.5-2.53c-1.66-1.69-3.28-3.42-4.89-5.16q-4.83-5.22-9.39-10.69c-1.51-1.83-3-3.67-4.48-5.54s-2.9-3.77-4.3-5.7A113.85,113.85,0,0,1,481.75,87c-.58-1.06-1.13-2.15-1.64-3.27a34.52,34.52,0,0,1-1.38-3.48A15,15,0,0,1,478,76.3a7.24,7.24,0,0,1,.25-2.3,5.64,5.64,0,0,1,.53-1.22,4.74,4.74,0,0,1,.88-1.07l.13-.12.1-.08.19-.15.4-.3c.26-.2.54-.38.83-.57a9.63,9.63,0,0,1,1.93-.95,5.65,5.65,0,0,1,2.47-.3,4.39,4.39,0,0,1,1.32.36,5,5,0,0,1,1.11.71,6.39,6.39,0,0,1,1.45,1.82,10.19,10.19,0,0,1,.8,1.89,21.2,21.2,0,0,1,.78,3.73,35.23,35.23,0,0,1,.21,3.68c0,.62,0,1.22,0,1.85s-.11,1.25-.19,1.86a30.41,30.41,0,0,1-.72,3.59,35.07,35.07,0,0,1-1.09,3.48A31.46,31.46,0,0,1,486,98.65a26.25,26.25,0,0,1-2.16,2.87,27.36,27.36,0,0,1-2.5,2.55,32.06,32.06,0,0,0,3.85-5.89A34.83,34.83,0,0,0,486.64,95a34.32,34.32,0,0,0,1.07-3.3,35.89,35.89,0,0,0,1.16-6.78c0-.56.06-1.14.05-1.67s-.05-1.13-.1-1.7c-.09-1.14-.24-2.27-.44-3.38a17.45,17.45,0,0,0-.85-3.16,7.83,7.83,0,0,0-.65-1.33,3.36,3.36,0,0,0-.78-.92,1.4,1.4,0,0,0-.78-.29,2.32,2.32,0,0,0-1,.19,5.84,5.84,0,0,0-1.21.66c-.21.14-.41.29-.62.45l-.3.25-.15.13a.22.22,0,0,0-.07.06l0,0a1.47,1.47,0,0,0-.39.71,3.77,3.77,0,0,0-.09,1.21,12.5,12.5,0,0,0,.65,3,41.59,41.59,0,0,0,2.8,6.15c1.09,2,2.31,4,3.55,6s2.55,3.92,3.87,5.85c2.66,3.87,5.41,7.68,8.22,11.47s5.66,7.54,8.53,11.29Z"/><circle class="cls-1" cx="376.06" cy="188.99" r="9.63"/></svg>